<?xml version="1.0" encoding="UTF-8" standalone="no"?>
<!-- Created with Inkscape (http://www.inkscape.org/) -->

<svg
   width="120"
   height="120"
   viewBox="0 0 120 120"
   version="1.1"
   id="svg1"
   inkscape:version="1.4.1 (93de688d07, 2025-03-30)"
   sodipodi:docname="disease.svg"
   inkscape:export-filename="disease.png"
   inkscape:export-xdpi="24"
   inkscape:export-ydpi="24"
   xmlns:inkscape="http://www.inkscape.org/namespaces/inkscape"
   xmlns:sodipodi="http://sodipodi.sourceforge.net/DTD/sodipodi-0.dtd"
   xmlns="http://www.w3.org/2000/svg"
   xmlns:svg="http://www.w3.org/2000/svg">
  <sodipodi:namedview
     id="namedview1"
     pagecolor="#ffffff"
     bordercolor="#000000"
     borderopacity="0.25"
     inkscape:showpageshadow="2"
     inkscape:pageopacity="0.0"
     inkscape:pagecheckerboard="0"
     inkscape:deskcolor="#d1d1d1"
     inkscape:document-units="px"
     inkscape:zoom="3.8478394"
     inkscape:cx="75.7568"
     inkscape:cy="71.858508"
     inkscape:window-width="1440"
     inkscape:window-height="872"
     inkscape:window-x="0"
     inkscape:window-y="0"
     inkscape:window-maximized="1"
     inkscape:current-layer="layer1" />
  <defs
     id="defs1">
    <inkscape:perspective
       sodipodi:type="inkscape:persp3d"
       inkscape:vp_x="-107.36905 : 71.948415 : 1"
       inkscape:vp_y="0 : 6074.8153 : 0"
       inkscape:vp_z="612.7662 : 87.577341 : 1"
       inkscape:persp3d-origin="248.04252 : -249.37489 : 1"
       id="perspective1" />
  </defs>
  <g
     inkscape:label="Слой 1"
     inkscape:groupmode="layer"
     id="layer1">
    <path
       id="path12"
       style="fill:#d35f5f;stroke-width:41.3655;stroke-linecap:round;stroke-linejoin:round"
       d="m 119.80598,68.348345 c -1.63222,13.241682 -11.30811,7.942903 -29.923843,19.991203 -9.796487,6.34039 16.225643,22.775312 4.191867,30.801262 -6.550626,4.36894 -38.859502,-9.29606 -49.12402,-10.27591 C 34.612669,107.87808 33.311922,126.64252 18.921043,107.00059 7.2910768,91.126988 34.748638,82.089412 27.309518,74.096054 21.511913,67.866509 0,73.190455 0,63.889486 0,57.466815 9.1217126,50.258494 11.448719,41.244853 13.870859,31.862714 9.6090857,20.723043 15.279446,16.795655 25.847782,9.4758474 36.881001,33.25004 49.51688,32.451235 60.343909,31.766782 64.311049,-8.1453712 80.909763,1.5039944 97.273871,11.016976 69.792863,29.194926 75.002113,35.22915 c 9.79241,11.343202 27.913017,-0.995377 32.126227,14.655 1.72273,6.399284 14.59411,2.916469 12.67764,18.464195 z"
       sodipodi:nodetypes="ssssssssssssss" />
    <path
       id="path14"
       style="fill:#782121;stroke:#000000;stroke-width:0;stroke-linecap:round;stroke-linejoin:round"
       d="m 53.276652,49.115817 c -1.574341,1.953266 -10.02221,1.813168 -11.95476,6.237267 -2.642943,6.050369 -11.954762,-2.79252 -11.954761,-6.237267 1e-6,-3.444747 5.352329,-6.237266 11.954761,-6.237266 6.602431,0 14.116481,3.555244 11.95476,6.237266 z"
       sodipodi:nodetypes="sssss" />
    <path
       id="path15"
       style="fill:#782121;stroke:#000000;stroke-width:0;stroke-linecap:round;stroke-linejoin:round"
       d="m 60.302175,86.39796 c -5.123729,4.3881 -11.699294,5.117373 -14.686938,1.628878 -2.987643,-3.488497 -2.768647,-15.472855 3.867727,-14.261841 6.856337,1.251154 12.428184,-2.745002 14.686938,-1.628876 2.842152,1.404403 2.359228,5.574053 0.102458,9.465533 -1.012844,1.746507 -2.382982,3.436983 -3.970185,4.796306 z"
       sodipodi:nodetypes="ssssss" />
    <path
       id="path16"
       style="fill:#782121;stroke:#000000;stroke-width:0;stroke-linecap:round;stroke-linejoin:round"
       d="m 94.338655,57.304886 c 0,3.08592 -4.42149,5.587552 -9.875673,5.587552 -5.454183,0 -12.177464,-3.532155 -9.875672,-5.587552 1.745474,-1.55863 8.071499,-2.393794 9.875672,-5.587553 2.682649,-4.748844 9.875673,2.501633 9.875673,5.587553 z"
       sodipodi:nodetypes="sssss" />
  </g>
</svg>
